# xmcd CD database file
#
# Track frame offsets:
#	150
#	35730
#	47495
#	77182
#	104127
#	123207
#	140715
#	176745
#
# Disc length: 2826 seconds
#
# Revision: 4
# Processed by: cddbd v1.5.2PL0 Copyright (c) Steve Scherf et al.
# Submitted via: CDex 1.51
#
DISCID=720b0808
DTITLE=James Cotton with Matt "Guitar" Murphy and Luther Tucker - Live At Antone's Nightclub
DYEAR=1900
DGENRE=Blues
TTITLE0=Blow Wind
TTITLE1=Juke
TTITLE2=It Ain't Right
TTITLE3=Gone To Main Street
TTITLE4=Oh Baby
TTITLE5=Hoochie Coochie Man
TTITLE6=Eyesight To The Blind
TTITLE7=Midnight Creeper
EXTD=
EXTT0=
EXTT1=
EXTT2=
EXTT3=
EXTT4=
EXTT5=
EXTT6=
EXTT7=
PLAYORDER=
